<svg width="80" height="70" viewBox="0 0 80 70" fill="none" xmlns="http://www.w3.org/2000/svg">
<g clip-path="url(#clip0_7_3)">
<path d="M80 7.19347C74.8748 8.25975 69.8704 10.5209 66.2411 14.8043C63.1109 18.4986 61.4093 23.2667 60.507 28.1758C59.5983 33.1202 59.4186 38.1764 59.0151 43.1898C58.6627 47.5681 58.209 52.1882 56.3522 56.1447C55.5131 57.9697 54.3145 59.5612 52.8454 60.8012C50.6489 62.5406 48.049 63.5438 45.3544 63.6917C44.6892 63.7445 44.0226 63.7536 43.3559 63.7616C41.9645 63.778 40.5727 63.778 39.1807 63.7616C39.0954 63.7605 38.316 63.7573 38.316 63.7384C38.316 63.7196 39.2473 63.7145 39.1807 63.7153C39.1332 63.7158 38.7434 63.7306 38.8732 63.7199C38.9626 63.7125 39.0534 63.7131 39.1429 63.7086C39.3358 63.6989 39.5281 63.6852 39.7204 63.6695L39.615 63.6783C42.2521 63.5045 44.7915 62.5073 46.9406 60.8013C48.3697 59.5968 49.5426 58.058 50.3764 56.2939C52.2184 52.4669 52.7076 47.9845 53.0661 43.7271C53.4741 38.8818 53.6399 34.0009 54.4242 29.2039C55.2073 24.4132 56.664 19.6852 59.4828 15.8815C62.6403 11.6209 67.1362 9.0448 71.8999 7.72154C72.6266 7.51969 73.3592 7.34673 74.0954 7.19356C74.3827 7.16029 74.6718 7.15255 74.9601 7.1704C75.6559 7.16213 76.3519 7.16043 77.0477 7.16078C77.7435 7.16113 78.4395 7.16152 79.1353 7.1704C79.4224 7.20633 79.7117 7.21409 80 7.19356V7.19347Z" fill="#1D1D1B"/>
<path d="M40.5217 30.2688C41.542 31.9794 42.436 33.7891 43.352 35.5682C44.0534 36.9305 44.7547 38.2918 45.3334 39.7251C46.45 42.477 47.1438 45.4171 47.3861 48.4235C47.8383 54.6431 46.3184 60.8425 43.0893 65.9493C42.1805 67.4086 41.1449 68.7653 39.9974 69.9999C40.0488 69.9449 38.6126 67.4023 38.4957 67.1772C38.148 66.5079 37.8003 65.8385 37.4594 65.1649C37.3009 64.8968 37.1623 64.6148 37.0451 64.3218C39.8265 61.3467 41.9299 57.6789 43.1815 53.622C44.433 49.5651 44.7967 45.2356 44.2425 40.9916C43.8641 38.3348 43.1359 35.7541 42.0814 33.3324L42.1273 33.4382C42.0095 33.1688 41.8882 32.9014 41.7636 32.636C41.7382 32.5821 41.53 32.1917 41.6854 32.4688C41.5959 32.2889 41.6281 32.3521 41.7821 32.6582C42.4329 33.9446 43.0984 35.2214 43.7785 36.4887C43.6676 36.2841 43.9163 36.731 43.7445 36.427C43.6977 36.3439 43.6511 36.2609 43.6038 36.1783C43.522 36.0355 43.439 35.8937 43.3547 35.7528C42.6887 34.6361 42.1204 33.4336 41.521 32.2719C41.2287 31.7052 40.9347 31.1394 40.6506 30.5676C40.6247 30.5155 40.3646 30.0058 40.5215 30.2688H40.5217Z" fill="#1D1D1B"/>
<path d="M76.3963 4.99004C77.1966 4.99004 77.8453 4.2697 77.8453 3.3811C77.8453 2.4925 77.1966 1.77216 76.3963 1.77216C75.5961 1.77216 74.9474 2.4925 74.9474 3.3811C74.9474 4.2697 75.5961 4.99004 76.3963 4.99004Z" fill="#1D1D1B" stroke="#1D1D1B" stroke-width="3" stroke-miterlimit="10"/>
<path d="M49.6018 39.7535C50.402 39.7535 51.0507 39.0331 51.0507 38.1445C51.0507 37.2559 50.402 36.5356 49.6018 36.5356C48.8015 36.5356 48.1528 37.2559 48.1528 38.1445C48.1528 39.0331 48.8015 39.7535 49.6018 39.7535Z" fill="#1D1D1B" stroke="#1D1D1B" stroke-width="3" stroke-miterlimit="10"/>
<path d="M43.2446 36.0879C44.7443 35.4493 46.088 34.4286 47.1674 33.1078C48.1243 31.927 48.8201 30.5148 49.1996 28.9833C49.5791 27.4517 49.6319 25.843 49.3537 24.2849C49.1041 22.8835 48.6128 21.5489 47.9067 20.3547C47.851 20.2608 47.7896 20.1702 47.7352 20.0755C47.6754 19.9712 48.7524 21.4944 48.3147 20.9508C48.1145 20.7022 47.9165 20.4579 47.7039 20.2222C47.2431 19.7111 46.9773 18.9845 46.5194 18.4767C47.1616 19.2252 47.7546 20.0238 48.2939 20.8665C48.8171 21.6062 49.2795 22.3964 49.6756 23.2278C50.4226 24.8754 50.7769 26.7081 50.7048 28.551C50.6197 30.1675 50.1952 31.7395 49.4651 33.1412C48.7351 34.5429 47.7197 35.7355 46.5003 36.6235C45.855 37.1157 45.1598 37.5218 44.4289 37.8334C44.2083 37.563 44.0076 37.2733 43.8288 36.9673C43.6499 36.6615 43.4548 36.3679 43.2444 36.0879H43.2446Z" fill="#1D1D1B"/>
<path d="M0 7.19347C5.12429 8.25975 10.1278 10.5209 13.7565 14.8043C16.8861 18.4986 18.5875 23.2667 19.4896 28.1758C20.3981 33.1202 20.5778 38.1764 20.9812 43.1898C21.3336 47.5681 21.7872 52.1882 23.6437 56.1447C24.4826 57.9697 25.681 59.5612 27.1498 60.8012C29.346 62.5406 31.9454 63.5437 34.6395 63.6917C35.3046 63.7445 35.9711 63.7536 36.6376 63.7616C38.0289 63.778 39.4203 63.778 40.8121 63.7616C40.8974 63.7605 41.6766 63.7573 41.6766 63.7384C41.6766 63.7196 40.7455 63.7145 40.8121 63.7153C40.8596 63.7158 41.2493 63.7306 41.1196 63.7199C41.0302 63.7125 40.9394 63.7131 40.85 63.7086C40.6573 63.6989 40.4648 63.6852 40.2725 63.6695L40.378 63.6783C37.7413 63.5045 35.2024 62.5073 33.0536 60.8013C31.6249 59.5968 30.4521 58.0579 29.6184 56.2939C27.7768 52.4669 27.2876 47.9845 26.9292 43.7271C26.5213 38.8818 26.3556 34.0009 25.5714 29.2039C24.7885 24.4132 23.332 19.6852 20.5137 15.8815C17.3567 11.6209 12.8616 9.0448 8.09874 7.72154C7.37217 7.51969 6.63969 7.34673 5.9036 7.19356C5.61643 7.16029 5.32732 7.15255 5.03904 7.1704C4.3434 7.16213 3.64749 7.16043 2.95182 7.16078C2.25614 7.16113 1.56027 7.16152 0.864596 7.1704C0.577584 7.20633 0.288238 7.214 0 7.19347Z" fill="#1D1D1B"/>
<path d="M39.4713 30.2688C38.4512 31.9794 37.5574 33.789 36.6415 35.5682C35.9402 36.9304 35.2391 38.2918 34.6604 39.7251C33.544 42.477 32.8503 45.4171 32.608 48.4235C32.156 54.6431 33.6757 60.8426 36.9042 65.9493C37.8128 67.4086 38.8482 68.7653 39.9956 69.9999C39.9441 69.9449 41.3801 67.4023 41.497 67.1772C41.8446 66.5079 42.1922 65.8385 42.5331 65.1649C42.6916 64.8968 42.8301 64.6148 42.9473 64.3218C40.1665 61.3466 38.0634 57.6789 36.812 53.622C35.5606 49.5651 35.197 45.2356 35.7511 40.9916C36.1295 38.3347 36.8575 35.754 37.9118 33.3323L37.8659 33.4381C37.9837 33.1688 38.1049 32.9014 38.2296 32.6359C38.255 32.5821 38.463 32.1917 38.3077 32.4687C38.3972 32.2889 38.365 32.352 38.2111 32.6582C37.5604 33.9446 36.895 35.2214 36.215 36.4886C36.3259 36.2841 36.0772 36.7309 36.2489 36.4269C36.2958 36.3439 36.3423 36.2608 36.3897 36.1782C36.4714 36.0354 36.5544 35.8936 36.6387 35.7528C37.3046 34.636 37.8728 33.4336 38.472 32.2718C38.7643 31.7052 39.0582 31.1393 39.3423 30.5676C39.3682 30.5155 39.6283 30.0057 39.4714 30.2687L39.4713 30.2688Z" fill="#1D1D1B"/>
<path d="M3.1329 4.99004C3.93299 4.99004 4.58159 4.2697 4.58159 3.3811C4.58159 2.4925 3.93299 1.77216 3.1329 1.77216C2.33281 1.77216 1.6842 2.4925 1.6842 3.3811C1.6842 4.2697 2.33281 4.99004 3.1329 4.99004Z" fill="#1D1D1B" stroke="#1D1D1B" stroke-width="3" stroke-miterlimit="10"/>
<path d="M30.3928 39.7535C31.1929 39.7535 31.8415 39.0331 31.8415 38.1445C31.8415 37.2559 31.1929 36.5356 30.3928 36.5356C29.5928 36.5356 28.9442 37.2559 28.9442 38.1445C28.9442 39.0331 29.5928 39.7535 30.3928 39.7535Z" fill="#1D1D1B" stroke="#1D1D1B" stroke-width="3" stroke-miterlimit="10"/>
<path d="M36.7489 36.0879C35.2495 35.4493 33.906 34.4286 32.8268 33.1078C31.8701 31.927 31.1744 30.5148 30.795 28.9833C30.4155 27.4517 30.3628 25.843 30.6409 24.2849C30.8904 22.8835 31.3817 21.5489 32.0877 20.3547C32.1434 20.2608 32.2047 20.1702 32.2591 20.0755C32.319 19.9712 31.242 21.4944 31.6797 20.9508C31.8798 20.7022 32.0779 20.4579 32.2904 20.2222C32.7512 19.7111 33.0169 18.9845 33.4747 18.4767C32.8326 19.2252 32.2397 20.0238 31.7005 20.8665C31.1774 21.6062 30.7151 22.3964 30.3191 23.2278C29.5722 24.8754 29.2179 26.7081 29.2901 28.551C29.3751 30.1675 29.7996 31.7395 30.5295 33.1412C31.2595 34.5429 32.2746 35.7355 33.4938 36.6235C34.139 37.1157 34.8341 37.5218 35.5648 37.8334C35.7854 37.563 35.986 37.2733 36.1648 36.9673C36.3437 36.6615 36.5388 36.3679 36.7491 36.0879H36.7489Z" fill="#1D1D1B"/>
</g>
<defs>
<clipPath id="clip0_7_3">
<rect width="80" height="70" fill="white"/>
</clipPath>
</defs>
</svg>
